<?xml version="1.0" encoding="iso-8859-1"?>
<!-- Generator: Adobe Illustrator 21.0.0, SVG Export Plug-In . SVG Version: 6.00 Build 0)  -->
<svg xmlns="http://www.w3.org/2000/svg" xmlns:xlink="http://www.w3.org/1999/xlink" version="1.1" id="Capa_1" x="0px" y="0px" viewBox="0 0 512 512" style="enable-background:new 0 0 512 512;" xml:space="preserve" width="512" height="512">
<rect x="10" y="20.583" style="fill-rule:evenodd;clip-rule:evenodd;fill:#D1D6DE;" width="492" height="253.299"/>
<polygon style="fill-rule:evenodd;clip-rule:evenodd;fill:#DB5C65;" points="332.24,147.233 273.603,112.699 214.964,78.165   214.964,147.233 214.964,216.299 273.603,181.766 "/>
<path style="fill-rule:evenodd;clip-rule:evenodd;fill:#F2CF55;" d="M141.941,311.95c-18.773,0-34.131,15.358-34.131,34.131v35.424  h68.262v-35.424C176.072,327.308,160.714,311.95,141.941,311.95L141.941,311.95z M370.059,311.95  c-18.772,0-34.131,15.358-34.131,34.131v35.424h68.261v-35.424C404.189,327.308,388.83,311.95,370.059,311.95L370.059,311.95z   M256,311.95c-18.773,0-34.131,15.358-34.131,34.131v35.424h68.262v-35.424C290.131,327.308,274.772,311.95,256,311.95z"/>
<path style="fill-rule:evenodd;clip-rule:evenodd;fill:#6FA9EC;" d="M437.745,421.863c-18.771,0-34.13,15.358-34.13,34.13v35.424  h68.261v-35.424C471.876,437.221,456.518,421.863,437.745,421.863L437.745,421.863z M74.254,421.863  c-18.772,0-34.131,15.358-34.131,34.13v35.424h68.262v-35.424C108.385,437.221,93.026,421.863,74.254,421.863L74.254,421.863z   M195.418,421.863c-18.773,0-34.131,15.358-34.131,34.13v35.424h68.262v-35.424C229.549,437.221,214.19,421.863,195.418,421.863  L195.418,421.863z M316.581,421.863c-18.771,0-34.13,15.358-34.13,34.13v35.424h68.262v-35.424  C350.713,437.221,335.353,421.863,316.581,421.863z"/>
<g>
	<path style="fill-rule:evenodd;clip-rule:evenodd;" d="M502,10.583H10c-5.523,0-10,4.477-10,10v253.299c0,5.523,4.477,10,10,10h492   c5.523,0,10-4.477,10-10V20.583C512,15.06,507.523,10.583,502,10.583z M492,263.881H20V30.583h472V263.881z"/>
	<path style="fill-rule:evenodd;clip-rule:evenodd;" d="M210.001,224.981c1.538,0.879,3.251,1.318,4.962,1.318   c1.755,0,3.509-0.461,5.075-1.383l117.276-69.066c3.052-1.797,4.925-5.075,4.925-8.617c0-3.541-1.874-6.819-4.925-8.617   L220.039,69.549c-3.092-1.821-6.923-1.845-10.037-0.065c-3.115,1.781-5.038,5.094-5.038,8.682v29.067c0,5.523,4.477,10,10,10   c5.523,0,10-4.477,10-10V95.66l87.571,51.573l-87.571,51.572v-11.572c0-5.523-4.477-10-10-10c-5.523,0-10,4.477-10,10v29.066   C204.964,219.887,206.886,223.2,210.001,224.981z"/>
	<path style="fill-rule:evenodd;clip-rule:evenodd;" d="M502,481.418h-20.124v-25.425c0-24.333-19.797-44.13-44.131-44.13   c-24.333,0-44.13,19.797-44.13,44.13v25.425l-32.902,0v-25.424c0-24.333-19.797-44.13-44.132-44.13   c-24.333,0-44.13,19.797-44.13,44.13v25.424h-32.902v-25.424c0-24.333-19.797-44.13-44.131-44.13s-44.131,19.797-44.131,44.13   v25.424l-32.902-0.001v-25.424c0-24.333-19.797-44.13-44.131-44.13c-24.333,0-44.131,19.797-44.131,44.13v25.424H10   c-5.523,0-10,4.477-10,10c0,5.523,4.477,10,10,10l492,0.001c5.523,0,10-4.477,10-10C512,485.895,507.523,481.418,502,481.418z    M413.615,455.993c0-13.305,10.825-24.13,24.13-24.13c13.306,0,24.131,10.825,24.131,24.13v25.424h-48.261V455.993z    M292.451,455.993c0-13.305,10.825-24.13,24.13-24.13c13.306,0,24.132,10.825,24.132,24.13v25.424h-48.262V455.993z    M171.287,455.993c0-13.305,10.825-24.13,24.131-24.13c13.306,0,24.131,10.825,24.131,24.13v25.424h-48.262V455.993z    M50.123,455.993c0-13.305,10.825-24.13,24.131-24.13s24.131,10.825,24.131,24.13v25.424H50.123V455.993z"/>
	<path style="fill-rule:evenodd;clip-rule:evenodd;" d="M141.941,301.95c-24.334,0-44.131,19.797-44.131,44.131v25.424H73.54   c-5.523,0-10,4.477-10,10c0,5.523,4.477,10,10,10h34.271h68.262h45.797h68.262h45.797h68.261h34.271c5.523,0,10-4.477,10-10   c0-5.523-4.477-10-10-10h-24.271v-25.424c0-24.334-19.796-44.131-44.13-44.131c-24.334,0-44.131,19.797-44.131,44.131v25.424   h-25.797v-25.424c0-24.334-19.797-44.131-44.131-44.131s-44.131,19.797-44.131,44.131v25.424h-25.797v-25.424   C186.072,321.747,166.275,301.95,141.941,301.95z M117.811,371.504v-25.424c0-13.306,10.825-24.131,24.131-24.131   c13.306,0,24.131,10.825,24.131,24.131v25.424H117.811z M345.928,346.081c0-13.306,10.825-24.131,24.131-24.131   c13.305,0,24.13,10.825,24.13,24.131v25.424h-48.261V346.081z M231.869,346.081c0-13.306,10.825-24.131,24.131-24.131   s24.131,10.825,24.131,24.131v25.424h-48.262V346.081z"/>
	<path style="fill-rule:evenodd;clip-rule:evenodd;" d="M214.964,157.233c5.509,0,10-4.492,10-10c0-5.509-4.491-10.001-10-10.001   c-5.508,0-10,4.492-10,10.001C204.964,152.741,209.456,157.233,214.964,157.233z"/>
</g>















</svg>
